<svg width="25" height="18" viewBox="0 0 25 18" fill="none" xmlns="http://www.w3.org/2000/svg">
<path fill-rule="evenodd" clip-rule="evenodd" d="M6 0H9V1H10V2H15V1H16V0H19V1H20V2H21V3H22V5H23V7H24V11H25V15H24V16H22V17H20V18H17V16H18V15H20V14H18V15H16V16H9V15H7V14H5V15H7V16H8V18H5V17H3V16H1V15H0V11H1V7H2V5H3V3H4V2H5V1H6V0ZM6 8V11H7V12H10V11H11V8H10V7H7V8H6ZM14 8V11H15V12H18V11H19V8H18V7H15V8H14Z" fill="white"/>
<path d="M0 14H1V15H0V14Z" fill="#DBDBDB"/>
<path d="M1 15H3V16H1V15Z" fill="#DBDBDB"/>
<path d="M3 16H5V17H3V16Z" fill="#DBDBDB"/>
<path d="M5 17H8V18H5V17Z" fill="#DBDBDB"/>
<path d="M25 14H24V15H25V14Z" fill="#DBDBDB"/>
<path d="M24 15H22V16H24V15Z" fill="#DBDBDB"/>
<path d="M22 16H20V17H22V16Z" fill="#DBDBDB"/>
<path d="M20 17H17V18H20V17Z" fill="#DBDBDB"/>
<path d="M10 7H11V8H10V7Z" fill="#DBDBDB"/>
<path d="M6 7H7V8H6V7Z" fill="#DBDBDB"/>
<path d="M7 6H10V7H7V6Z" fill="#DBDBDB"/>
<path d="M7 14H9V15H7V14Z" fill="#DBDBDB"/>
<path d="M16 14H18V15H16V14Z" fill="#DBDBDB"/>
<path d="M9 15H16V16H9V15Z" fill="#DBDBDB"/>
<path d="M18 7H19V8H18V7Z" fill="#DBDBDB"/>
<path d="M14 7H15V8H14V7Z" fill="#DBDBDB"/>
<path d="M15 6H18V7H15V6Z" fill="#DBDBDB"/>
</svg>
